# xmcd CD database file
#
# Track frame offsets:
#	165
#	14757
#	36575
#	57797
#	75546
#	87511
#	99955
#	127014
#	156461
#	169274
#	195044
#
# Disc length: 2849 seconds
#
# Revision: 0
# Processed by: cddbd v1.5.2PL0 Copyright (c) Steve Scherf et al.
# Submitted via: CDex 1.51
#
DISCID=8c0b1f0b
DTITLE=Barbara Balzan - Secret Whisper
DYEAR=2009
DGENRE=Jazz
TTITLE0=Afro Blue
TTITLE1=Precious Smile
TTITLE2=Instinctively
TTITLE3=Why Should I Care
TTITLE4=Intro
TTITLE5=Red Is the Irish Rose
TTITLE6=Fragile
TTITLE7=Blossoms Of Gold
TTITLE8=Inner Light
TTITLE9=Norwegian Wood
TTITLE10=Secret Whisper
EXTD=YEAR: 2009
EXTT0=
EXTT1=
EXTT2=
EXTT3=
EXTT4=
EXTT5=
EXTT6=
EXTT7=
EXTT8=
EXTT9=
EXTT10=
PLAYORDER=
